# xmcd CD database file
#
# Track frame offsets:
#	150
#	24060
#	39012
#	62457
#	88385
#	119057
#	144032
#	157597
#	180732
#	213952
#	234917
#
# Disc length: 3567 seconds
#
# Revision: 0
# Processed by: cddbd v1.4PL0 Copyright (c) Steve Scherf et al.
# Submitted via: CDex 1.40Release
#
DISCID=7a0ded0b
DTITLE=Jammin' The Blues - Wildlive!
DYEAR=1991
DGENRE=Blues
TTITLE0=She's So Sexy
TTITLE1=Cold Steel
TTITLE2=Equalize
TTITLE3=Rock 'n' Roll Hoochie Koo
TTITLE4=Bus Stop Blues
TTITLE5=Baby Ruth
TTITLE6=Rodeo
TTITLE7=Nadine
TTITLE8=I'm A King Bee
TTITLE9=Hearts and Hands
TTITLE10=Things You Never Learn At School
EXTD=YEAR: 1991 ID3G: 0
EXTT0=
EXTT1=
EXTT2=
EXTT3=
EXTT4=
EXTT5=
EXTT6=
EXTT7=
EXTT8=
EXTT9=
EXTT10=
PLAYORDER=
